<svg id="logo-large" xmlns="http://www.w3.org/2000/svg" width="250.495" height="216.89"><defs><clipPath id="clip-path"><path id="Clip_3" data-name="Clip 3" d="M0 0h250.5v82.613H0z" fill="none"/></clipPath></defs><path id="Fill_1" data-name="Fill 1" d="M116.392 0L82.644 46.589 48.911 0H0v33.224h12.623v51.725H0V118.2h62.252V84.949H48.8V51.3l33.844 46.272L116.477 51.3v33.649h-13.453V118.2h62.244V84.949h-12.63V33.224h12.63V0z" transform="translate(42.263)" fill="#ffcb05"/><g id="Group_4" data-name="Group 4" transform="translate(0 134.277)"><path id="Clip_3-2" data-name="Clip 3" d="M0 0h250.5v82.613H0z" fill="none"/><g id="Group_4-2" data-name="Group 4" clip-path="url(#clip-path)"><path id="Fill_2" data-name="Fill 2" d="M181.624 82.613a5.95 5.95 0 01-6.1-6.329 7.136 7.136 0 011.535-4.564 5.821 5.821 0 014.654-2.063 5.983 5.983 0 013.981 1.42l.092.069.838-.766.07 3.732-.553.121a5.077 5.077 0 00-1.32-2.178 3.633 3.633 0 00-2.583-1.207c-2.386 0-3.989 2.013-3.989 5.01 0 2.529 1.346 5.251 4.3 5.251a3.943 3.943 0 003.6-2.113l.739.559-.03.048a5.73 5.73 0 01-5.234 3.01zm35.451-.014a6 6 0 01-4.721-2 7.237 7.237 0 01.207-9.174 5.8 5.8 0 014.257-1.779A7.334 7.334 0 01221 70.961l.151.092.639-.738.085 3.853-.5.093a6.093 6.093 0 00-1.561-2.519 3.435 3.435 0 00-2.427-.908 3.5 3.5 0 00-2.782 1.352 6.393 6.393 0 00-1.164 4.019 6.641 6.641 0 001 3.679 3.284 3.284 0 002.794 1.566 2.715 2.715 0 002.128-1l.028-.033a1.7 1.7 0 00.241-1.157c-.056-1.588-.3-1.613-1.632-1.752v-.667h4.968v.659c-1.118.078-1.122.377-1.149 2.7v.946a8.138 8.138 0 01-4.744 1.454zm-88.584 0a6.374 6.374 0 01-4.539-1.786 6.482 6.482 0 01-1.846-4.729 6.621 6.621 0 011.615-4.445 5.943 5.943 0 014.571-1.934h.029a6.109 6.109 0 016.33 6.407 6.514 6.514 0 01-1.856 4.835 6.139 6.139 0 01-4.304 1.653zm-.086-11.766h-.071a3 3 0 00-2.171 1.078 5.921 5.921 0 00-1.277 3.959 6.477 6.477 0 001.136 4.137 2.764 2.764 0 004.91-.079 6.438 6.438 0 001.007-4.165 5.76 5.76 0 00-1.4-3.924 2.953 2.953 0 00-2.134-1.006zm-49.926 11.68a5.481 5.481 0 01-3.193-.987l-1.022-.744-.184-2.426.624-.071c.712 2.111 1.875 3.094 3.662 3.094 1.194 0 2.47-.5 2.47-1.888 0-1.362-1.288-1.917-1.907-2.184l-.038-.016-.6-.213c-.3-.1-.608-.212-.9-.326a3.726 3.726 0 01-2.91-3.548 3.608 3.608 0 013.931-3.59 5.021 5.021 0 012.825.844l.752-.546.411 3.661-.625.114a4.482 4.482 0 00-.851-1.817 2.889 2.889 0 00-2.4-1.128c-1.286 0-2.086.618-2.086 1.612 0 1.479 1.5 1.974 2.823 2.411l.131.043a7.994 7.994 0 011.642.667 3.575 3.575 0 011.788 3.144 3.713 3.713 0 01-1.2 2.746 4.576 4.576 0 01-3.143 1.148zM6.542 82.5a5.937 5.937 0 01-3.221-.88c-1.859-1.253-1.859-3.2-1.859-5.08v-3.269c-.01-.985-.015-1.48-.053-1.752-.1-.762-.451-.921-1.4-.987v-.659H5.55v.659c-1.632.114-1.633.164-1.661 2.813v2.886a6.526 6.526 0 00.823 3.937 2.666 2.666 0 002.242 1.043 3.017 3.017 0 003.165-2.377 21.138 21.138 0 00.355-4.732c0-.476 0-1.924-.015-2.335-.069-1.094-.636-1.142-1.666-1.228l-.079-.007v-.659H13.4v.659h-.145c-1 0-1.247.274-1.316 1.465a651.7 651.7 0 00-.17 4.256 13.726 13.726 0 01-.3 2.754 4.256 4.256 0 01-2.451 2.985 6.2 6.2 0 01-2.476.508zm66.049-.028c-2.219 0-3.21-.673-4.244-2.882l-.7-1.425c-.682-1.48-.948-1.482-1.939-1.489h-.19v1.6h-.014v.01c.014 2.832.016 3.2 1.5 3.245v.669h-5.142v-.675c1.358-.122 1.461-.342 1.489-1.652.015-.5.015-1.081.015-1.589v-4.456a19.813 19.813 0 00-.071-2.412c-.084-.653-.415-.787-1.433-.88v-.659l5.591.006c3.308 0 4 1.725 4 3.172a3.437 3.437 0 01-2.439 3.245l2.186 3.8c.776 1.412 1.187 1.77 2.2 1.915v.426c-.23.015-.514.03-.809.03zm-6.33-11.509a3.786 3.786 0 00-.752.071v4.561a6.778 6.778 0 001.149.107h.026a2.431 2.431 0 002.486-2.065 2.456 2.456 0 00-.583-1.884 3.075 3.075 0 00-2.326-.791zm182.574 11.48h-.735l-1.107-1.369a87.235 87.235 0 00-1.246-1.563l-.428-.53-4.867-6v6.393c0 1.988.142 2.05 2.014 2.249v.667h-5.024v-.667h.031c1-.055 1.375-.076 1.517-.779.133-.633.189-5.315.219-7.83.009-.72.015-1.285.021-1.564a2.338 2.338 0 00-1.788-.81v-.667h3.7l.229.323c.846 1.194 1.162 1.641 2.837 3.721l3.448 4.258v-5.527c-.015-1.979-.09-2.058-2.015-2.114v-.667h4.859v.667h-.008c-1.352 0-1.454.318-1.482 2.3l-.171 9.507zm-90.272 0h-1.079l-3.958-9.607-.085 7.252c0 1.177.125 1.438 1.447 1.532v.667h-4.272v-.667c1.027-.058 1.378-.213 1.434-1.015.053-.325.1-1.307.113-2.065l.171-5.151c.014-.413.014-1 .014-1.427 0-1.22-.219-1.327-1.334-1.334v-.674h3.874l3.845 9.353 4.215-9.353h3.747v.738c-1.443.091-1.477.24-1.463 2.164v5.073c0 .868.029 1.9.057 2.534.085.89.408 1.062 1.4 1.156v.667h-5.4v-.667c1.568-.093 1.568-.181 1.582-2.452v-6.206l-4.314 9.48zm-115.448 0h-.654l-3.377-9.09c-.83-2.313-.937-2.611-2.172-2.817v-.659h5.833v.659c-.983.043-1.632.071-1.632.781a5.57 5.57 0 00.425 1.7l2.143 6.251 2.512-6.472.055-.154a4.347 4.347 0 00.313-1.144c0-.857-.779-.942-1.646-.958v-.66h4.315v.659c-1.167.183-1.341.5-2.355 2.96l-3.76 8.946zm-16.761-.084h-.724l-1.107-1.377c-.316-.4-.641-.8-.955-1.192-.236-.292-.48-.594-.719-.894l-4.867-6v6.379c0 2 .143 2.065 2.028 2.249v.676h-5.024v-.667h.033c.989-.055 1.359-.076 1.5-.758.151-.734.2-6.552.221-8.742 0-.292 0-.519.006-.666a2.376 2.376 0 00-1.76-.831v-.659h3.69c1.028 1.484 1.278 1.834 3.065 4.059l3.449 4.256v-5.528c-.015-1.958-.091-2.037-2.029-2.129v-.653h4.854v.653c-1.371.029-1.463.316-1.476 2.3l-.185 9.522zm202.3-.07h-5.08v-.667c1.327-.058 1.715-.343 2.185-1.6l3.335-9.139-.2-.3a7.6 7.6 0 002.455-1.136c.178.644.24.847.391 1.337l.012.038.136.442 2.739 8.372c.494 1.509.722 1.846 2.015 1.987v.665h-5.762v-.667c.833-.056 1.49-.1 1.49-.809a2.757 2.757 0 00-.142-.723l-.369-1.264h-4.339l-.383 1.065-.032.1a2.2 2.2 0 00-.138.663c0 .9.976.938 1.688.966v.667zm1.121-9.892l-1.8 5.109h3.547zm-35.535 9.892h-5.279v-.667c1.419-.108 1.419-.424 1.419-1.6.014-.441.014-.88.014-1.305v-5.173a18.919 18.919 0 00-.056-1.987c-.072-.742-.415-.838-1.377-.923v-.667h5.279v.667h-.049c-1 .1-1.372.141-1.5.8a13.665 13.665 0 00-.1 2.05v1.7c1.046.056 1.81.093 2.838.093s1.851-.034 2.923-.093v-2.066c-.014-2.2-.014-2.333-1.7-2.484v-.667h5.336v.667c-1.434.17-1.434.17-1.434 2.533v5.188c0 .46.028 2.037.071 2.419.083.617.429.758 1.363.844v.666h-5.337v-.667h.042c1.2-.137 1.52-.174 1.633-1.01.029-.362.029-.817.029-1.725v-2.274c-.289-.008-.563-.018-.832-.027-.645-.022-1.253-.043-1.965-.043-1.082 0-1.947.03-2.966.07v2.271c.014 2.565.044 2.568 1.638 2.738h.009v.667zm15.043 0h-5.123v-.667c1.209-.154 1.449-.3 1.477-1.589v-6.567c-.028-2.534-.029-2.633-1.477-2.838v-.674h5.124v.674c-1.434.143-1.434.193-1.434 2.838v4.974c0 .472.015 1.823.044 2.186.087.773.482.926 1.39.993v.666zm-35.1 0h-5.122v-.667c1.209-.156 1.447-.3 1.462-1.589v-6.567c-.015-2.534-.015-2.633-1.462-2.838v-.674h5.122v.674c-1.461.143-1.461.193-1.461 2.838v4.974c0 .44.029 1.82.056 2.186.1.764.456.924 1.4.993v.666zm-33.193 0h-5.109v-.68c1.252-.126 1.434-.233 1.462-1.589.029-.285.043-1.767.043-2.1v-4.347a19.823 19.823 0 00-.1-2.22c-.125-.572-.5-.63-1.4-.717v-.667h9.054l.184 3.009h-.61c-.324-1.895-1.1-1.895-3.4-1.895h-.1a11.352 11.352 0 00-1.476.05V75.4h1.632c1.5 0 1.858-.134 1.929-1.455h.6v4.073h-.6c-.082-1.369-.766-1.519-2.2-1.519h-1.362l-.015 3.512c.043 1.357.226 1.464 1.476 1.59v.679zM113.7 82.2h-6.06v-.668l.186-.022c.824-.1 1.165-.136 1.39-.362.281-.28.284-.587.3-1.878v-2.221l-3.264-5.073c-.905-1.337-.923-1.363-2.1-1.44v-.675h6.4v.675c-1.323.044-1.859.085-1.859.674a2.781 2.781 0 00.513 1.19l.026.044 1.888 3.088 1.746-3.08.023-.048a3.428 3.428 0 00.459-1.208c0-.559-.477-.595-1.267-.653l-.1-.007v-.674h4.819v.674c-1.279.045-1.627.45-3.009 2.711l-1.929 3.207v2.57c0 2.216 0 2.4 1.844 2.5v.676zm-53.914 0h-9.4v-.675c1.3-.136 1.434-.287 1.462-1.611.019-.183.029-.928.029-2.1v-4.32a16.2 16.2 0 00-.1-2.236c-.116-.592-.515-.633-1.391-.724v-.659h8.785l.056 2.916h-.554c-.286-1.668-1.039-1.816-3.122-1.816h-1.51v4.35h1.349c1.624 0 1.819-.4 1.929-1.469h.6v4.059h-.6c0-.7-.122-1.073-.421-1.273a2.871 2.871 0 00-1.523-.232h-1.334v3.457c0 .777.323 1.228 1.974 1.228h.511c1.576 0 2.56-.14 2.923-2.087h.6a29.086 29.086 0 00-.256 3.192zm39.637 0h-5.091v-.533c1.083-.013 1.448-.369 1.448-1.412v-9.06h-1.758c-1.336 0-2.1.1-2.2 2.143h-.638l.1-3.462h11.2l.1 3.462h-.654c-.092-2.044-.852-2.143-2.188-2.143h-1.763v9.062c0 1.042.365 1.4 1.448 1.412v.531zm-10.047 0h-5.105v-.667c1.192-.156 1.448-.31 1.448-1.589v-6.555c0-2.548 0-2.648-1.448-2.853v-.66h5.109v.66c-1.463.142-1.463.192-1.463 2.853v4.966c0 .443.029 1.825.057 2.186.085.749.442.909 1.405.986v.673zm-54.276 0h-5.127v-.667c1.209-.155 1.448-.3 1.477-1.589v-6.555c-.028-2.548-.03-2.648-1.477-2.853v-.66H35.1v.66c-1.448.142-1.448.192-1.448 2.853v4.966c0 .5.017 1.831.057 2.186.085.748.438.909 1.39.986v.673zm175.657-25.1c-4.145 0-6.461-.849-7.743-2.837-1.265-1.963-1.514-4.996-1.514-9.563 0-3.069.088-6.007 1.157-8.233 1.218-2.536 3.578-3.769 7.216-3.769a7.806 7.806 0 015.862 2.136 7.193 7.193 0 011.694 5.517h-4.906a4.771 4.771 0 00-.86-3.4 2.775 2.775 0 00-2.083-.72c-1.4 0-2.26.842-2.692 2.649a28.882 28.882 0 00-.385 6.084c0 7.557.8 8.7 3.533 8.7a7.725 7.725 0 002.454-.458v-5.235h-2.68v-3.629h7.621v11.969a45.822 45.822 0 01-6.674.789zm-132.651 0c-4.146 0-6.461-.849-7.744-2.837-1.266-1.963-1.513-4.991-1.513-9.559 0-3.068.089-6.007 1.157-8.233 1.218-2.536 3.578-3.769 7.216-3.769a7.807 7.807 0 015.862 2.136 7.194 7.194 0 011.7 5.517h-4.912a4.768 4.768 0 00-.859-3.4 2.776 2.776 0 00-2.084-.72c-1.4 0-2.26.842-2.692 2.649a28.882 28.882 0 00-.385 6.084c0 7.557.8 8.7 3.534 8.7a7.71 7.71 0 002.454-.468v-5.229h-2.682v-3.629h7.622v11.969a45.822 45.822 0 01-6.674.789zm106.461-.4h-4.612V33.089h6.672l6.279 16.354h.066V33.089h4.613V56.7h-6.509l-6.444-17.269h-.065V56.7zm-27.073 0h-4.94V33.089h9.126a5.294 5.294 0 014.027 1.583 6.658 6.658 0 011.5 4.6c0 3.366-1.474 5.314-4.381 5.789v.065l.093.011c1.146.136 4.191.5 4.191 4.633 0 1.6.1 5.954.555 6.933h-4.839a9.036 9.036 0 01-.528-3.917c0-.206.005-.44.005-.662v-.51c.009-1.62.017-3.019-.825-3.866a3.688 3.688 0 00-2.712-.825h-1.275V56.7zm0-19.984v6.574h2.192c1.856 0 2.517-1.791 2.517-3.468 0-2.09-.823-3.107-2.517-3.107zM102.791 56.7h-4.612V33.089h6.672l6.28 16.354h.066V33.089h4.612V56.7H109.3l-6.444-17.269h-.066V56.7zm-50.876 0H47.3V33.089h6.672l6.28 16.354h.065V33.089h4.612V56.7h-6.506L51.98 39.435h-.065V56.7zm123.857 0h-4.939V33.089h4.939V56.7zm-26.32 0H136.3V33.089h12.886v3.631h-7.947v5.822h7.327v3.63h-7.327v6.9h8.208V56.7zm-16.349 0h-13.147V33.089h12.887v3.631H124.9v5.822h7.326v3.63H124.9v6.9h8.2V56.7zM94 56.7h-4.943V33.089H94V56.7zm-49.927 0h-13.15V33.089h12.886v3.631H35.86v5.822h7.327v3.63H35.86v6.9h8.208V56.7zm53.814-32.3a9.282 9.282 0 01-4.708-1.037 5.744 5.744 0 01-2.418-2.745c-1.018-2.277-1.018-5.26-1.018-8.418 0-6.273 0-12.2 8.144-12.2a6.9 6.9 0 015.17 1.771c1.251 1.3 1.807 3.289 1.7 6.079h-4.84a8.372 8.372 0 00-.46-3.339 1.574 1.574 0 00-1.57-.978c-2.83 0-3.14 2.775-3.14 8.667s.31 8.667 3.14 8.667c2.123 0 2.194-2.533 2.246-4.382 0-.147.008-.289.013-.425h4.873c0 3.072-.6 5.21-1.836 6.537-1.146 1.229-2.828 1.803-5.296 1.803zm48.359 0c-4.145 0-6.461-.849-7.743-2.837-1.265-1.963-1.513-4.994-1.513-9.563 0-3.069.088-6.007 1.157-8.233C139.365 1.233 141.725 0 145.363 0a7.806 7.806 0 015.862 2.136 7.193 7.193 0 011.694 5.517h-4.906a4.768 4.768 0 00-.859-3.4 2.775 2.775 0 00-2.084-.72c-1.4 0-2.26.842-2.692 2.649a28.875 28.875 0 00-.385 6.083c0 7.558.8 8.7 3.533 8.7a7.724 7.724 0 002.453-.458v-5.234H145.3v-3.628h7.62v11.969a45.778 45.778 0 01-6.674.786zm35.575-.391h-4.613V.392h6.672l6.28 16.354h.066V.392h4.612v23.614h-6.508l-6.443-17.27h-.066v17.27zm-68.567 0h-4.939V.392h4.939v9.453h5.659V.392h4.94v23.614h-4.94V13.474h-5.659v10.533zm-54.9 0h-4.807V.392H61.5l3.7 16.059h.065L69.18.392h7.687v23.614h-4.808V5.788h-.065l-4.546 18.219h-4.71L58.421 5.788h-.065v18.219zm101.916 0h-4.87L161.941.392h6.509l6.41 23.614h-5.2l-1.307-5.233h-6.737l-1.341 5.233zm4.58-19.069l-2.257 10.2h4.707l-2.387-10.2zm-31.78 19.067h-4.939V.392h4.939v23.614zm-47.248 0h-4.939V.392h4.939v23.614z" fill="#fff"/></g></g></svg>